<svg width="44" height="44" viewBox="0 0 44 44" fill="none" xmlns="http://www.w3.org/2000/svg">

  <!-- Ring -->
  <g stroke="#10B981" stroke-width="1.5" stroke-linecap="round" fill="none">
    <path d="M 22 4 A 18 18 0 0 1 37.59 13" />
    <path d="M 37.59 31 A 18 18 0 0 1 22 40" />
    <path d="M 6.41 31 A 18 18 0 0 1 6.41 13" />
  </g>

  <!-- Petals -->
  <g transform="translate(22 22)">
    <g transform="rotate(0)">
      <path d="M 0 0 C -6 -4 -6 -12 0 -16 C 6 -12 6 -4 0 0 Z" fill="#10B981" />
      <path d="M 0 -2 L 0 -14" stroke="rgba(255,255,255,0.45)" stroke-width="0.8" stroke-linecap="round" />
    </g>
    <g transform="rotate(120)">
      <path d="M 0 0 C -6 -4 -6 -12 0 -16 C 6 -12 6 -4 0 0 Z" fill="#14B8A6" />
      <path d="M 0 -2 L 0 -14" stroke="rgba(255,255,255,0.45)" stroke-width="0.8" stroke-linecap="round" />
    </g>
    <g transform="rotate(240)">
      <path d="M 0 0 C -6 -4 -6 -12 0 -16 C 6 -12 6 -4 0 0 Z" fill="#0EA5E9" />
      <path d="M 0 -2 L 0 -14" stroke="rgba(255,255,255,0.45)" stroke-width="0.8" stroke-linecap="round" />
    </g>
  </g>

  <!-- Seed -->
  <circle cx="22" cy="22" r="3.2" fill="#A7F3D0" />
  <circle cx="22" cy="22" r="1.4" fill="#10B981" />

</svg>